# xmcd
#
# Track frame offsets:
#	151
#	15325
#	28444
#	45691
#	65200
#	77237
#	96579
#	110264
#	122302
#	133828
#	145138
#	155574
#	166903
#	181384
#
# Disc length: 2562 seconds
#
# Revision: 1
# Processed by: cddbd v1.5.1PL2 Copyright (c) Steve Scherf et al.
# Submitted via: audiograbber 1.83.01
#
DISCID=c20a000e
DTITLE=The Spinns - Lost Colony
DYEAR=2005
DGENRE=Garage
TTITLE0=Girl
TTITLE1=Let Me Down
TTITLE2=Love for Real
TTITLE3=1965
TTITLE4=Before I'm Gone
TTITLE5=Doin' Me In
TTITLE6=Lovin'
TTITLE7=Long John
TTITLE8=Keggs
TTITLE9=Evil Lies
TTITLE10=I Want You
TTITLE11=I Will See You
TTITLE12=Wild Man!
TTITLE13=Bonus Track
EXTD=
EXTT0=
EXTT1=
EXTT2=
EXTT3=
EXTT4=
EXTT5=
EXTT6=
EXTT7=
EXTT8=
EXTT9=
EXTT10=
EXTT11=
EXTT12=
EXTT13=
PLAYORDER=
